<?xml version="1.0" encoding="UTF-8" standalone="no"?>
<svg
   xmlns:dc="http://purl.org/dc/elements/1.1/"
   xmlns:cc="http://creativecommons.org/ns#"
   xmlns:rdf="http://www.w3.org/1999/02/22-rdf-syntax-ns#"
   xmlns:svg="http://www.w3.org/2000/svg"
   xmlns="http://www.w3.org/2000/svg"
   viewBox="0 0 2967.1467 1440"
   height="1440"
   width="2967.1467"
   xml:space="preserve"
   id="svg2"
   version="1.1"><metadata
     id="metadata8"><rdf:RDF><cc:Work
         rdf:about=""><dc:format>image/svg+xml</dc:format><dc:type
           rdf:resource="http://purl.org/dc/dcmitype/StillImage" /></cc:Work></rdf:RDF></metadata><defs
     id="defs6"><clipPath
       id="clipPath18"
       clipPathUnits="userSpaceOnUse"><path
         id="path16"
         d="M 0,1080 H 2225.362 V 0 H 0 Z" /></clipPath></defs><g
     transform="matrix(1.3333333,0,0,-1.3333333,0,1440)"
     id="g10"><g
       id="g12"><g
         clip-path="url(#clipPath18)"
         id="g14"><g
           transform="translate(180.9161,499.2206)"
           id="g20"><path
             id="path22"
             style="fill:#ff5422;fill-opacity:1;fill-rule:nonzero;stroke:none"
             d="m 0,0 c 10.555,0 20.012,2.398 28.362,7.199 8.35,4.796 14.924,11.468 19.724,20.012 4.796,8.539 7.199,18.186 7.199,28.938 0,10.748 -2.403,20.394 -7.199,28.938 -4.8,8.539 -11.374,15.261 -19.724,20.156 -8.35,4.895 -17.807,7.343 -28.362,7.343 -10.177,0 -19.342,-2.448 -27.499,-7.343 -8.161,-4.895 -14.59,-11.617 -19.292,-20.156 -4.706,-8.544 -7.054,-18.19 -7.054,-28.938 0,-10.752 2.348,-20.399 7.054,-28.938 C -42.089,18.667 -35.66,11.995 -27.499,7.199 -19.342,2.398 -10.177,0 0,0 m -26.779,-68.817 c -22.846,0 -42.714,5.614 -59.604,16.843 -16.894,11.231 -29.995,26.298 -39.304,45.207 -9.313,18.906 -13.965,39.88 -13.965,62.916 0,23.036 4.652,44.005 13.965,62.915 9.309,18.906 22.41,34.023 39.304,45.351 16.89,11.324 36.758,16.988 59.604,16.988 15.162,0 28.601,-2.352 40.312,-7.053 11.707,-4.706 21.209,-10.272 28.507,-16.702 7.293,-6.433 11.706,-12.335 13.245,-17.708 v 194.361 h 87.534 V -61.907 h -86.67 v 38.296 C 52.5,-30.715 46.548,-37.77 38.296,-44.774 30.041,-51.784 20.345,-57.543 9.214,-62.051 -1.921,-66.56 -13.92,-68.817 -26.779,-68.817" /></g><g
           transform="translate(533.6373,582.7245)"
           id="g24"><path
             id="path26"
             style="fill:#ff5422;fill-opacity:1;fill-rule:nonzero;stroke:none"
             d="m 0,0 c -0.193,6.141 -1.827,12.237 -4.895,18.284 -3.073,6.047 -7.68,11.036 -13.821,14.973 -6.146,3.932 -14.015,5.903 -23.611,5.903 -9.601,0 -17.709,-1.872 -24.332,-5.615 C -73.281,29.802 -78.32,24.951 -81.775,19.004 -85.231,13.052 -87.152,6.717 -87.534,0 Z m -89.55,-45.783 c 0.576,-8.449 3.262,-15.936 8.063,-22.46 4.796,-6.528 11.467,-11.661 20.011,-15.404 8.54,-3.744 18.667,-5.616 30.378,-5.616 11.131,0 21.164,1.153 30.09,3.455 8.926,2.304 16.701,5.184 23.323,8.639 6.623,3.455 11.757,7.005 15.406,10.654 l 33.977,-54.133 c -4.801,-5.183 -11.568,-10.222 -20.3,-15.117 -8.737,-4.895 -20.206,-8.882 -34.409,-11.95 -14.208,-3.068 -32.156,-4.606 -53.845,-4.606 -26.109,0 -49.337,4.894 -69.683,14.684 -20.349,9.79 -36.379,24.188 -48.086,43.192 -11.711,19.004 -17.564,42.228 -17.564,69.681 0,23.035 5.039,43.813 15.117,62.34 10.078,18.523 24.713,33.208 43.911,44.055 19.193,10.843 42.327,16.268 69.394,16.268 25.721,0 48.037,-4.706 66.946,-14.108 18.905,-9.408 33.496,-23.373 43.768,-41.895 10.266,-18.528 15.405,-41.609 15.405,-69.25 0,-1.54 -0.05,-4.608 -0.144,-9.215 -0.1,-4.607 -0.338,-7.68 -0.72,-9.214 z" /></g><g
           transform="translate(639.88,673.7137)"
           id="g28"><path
             id="path30"
             style="fill:#ff5422;fill-opacity:1;fill-rule:nonzero;stroke:none"
             d="M 0,0 H 93.581 L 150.594,-156.929 207.894,0 h 93.005 L 201.847,-236.4 H 99.34 Z" /></g><g
           transform="translate(1136.5792,759.2323)"
           id="g32"><path
             id="path34"
             style="fill:#ff5422;fill-opacity:1;fill-rule:nonzero;stroke:none"
             d="m 0,0 c -7.682,0 -14.254,-1.439 -19.725,-4.319 -5.471,-2.879 -9.551,-6.622 -12.237,-11.23 -2.691,-4.606 -4.032,-9.502 -4.032,-14.684 0,-5.377 1.296,-10.898 3.888,-16.557 2.591,-5.665 5.614,-10.898 9.069,-15.693 3.457,-4.801 6.574,-8.783 9.359,-11.95 2.78,-3.168 4.557,-5.137 5.326,-5.903 2.112,0.959 5.516,2.735 10.223,5.327 4.701,2.592 9.596,6.047 14.686,10.366 5.084,4.32 9.402,9.404 12.957,15.261 3.549,5.854 5.326,12.237 5.326,19.149 0,8.444 -3.072,15.593 -9.215,21.451 C 19.48,-2.929 10.941,0 0,0 m -33.402,-162.399 c -2.115,-0.963 -4.994,-2.403 -8.639,-4.319 -3.648,-1.922 -7.486,-4.274 -11.517,-7.054 -4.031,-2.786 -7.775,-6.047 -11.23,-9.79 -3.455,-3.744 -6.335,-7.919 -8.638,-12.526 -2.303,-4.607 -3.455,-9.79 -3.455,-15.549 0,-8.45 1.965,-15.405 5.902,-20.876 3.933,-5.47 9.309,-9.502 16.125,-12.093 6.812,-2.592 14.442,-3.888 22.892,-3.888 7.868,0 15.45,1.296 22.747,3.888 7.293,2.591 13.965,5.709 20.012,9.358 6.047,3.644 10.892,7.1 14.541,10.365 z m -141.38,-57.012 c 0,14.203 2.636,26.873 7.919,38.008 5.277,11.131 12.093,20.826 20.444,29.082 8.35,8.252 17.132,15.162 26.346,20.732 9.215,5.566 17.853,10.028 25.915,13.389 8.062,3.356 14.397,5.71 19.004,7.054 -4.418,2.111 -9.214,5.661 -14.397,10.655 -5.183,4.989 -10.078,11.036 -14.685,18.139 -4.607,7.1 -8.4,15.163 -11.374,24.188 -2.978,9.02 -4.463,18.716 -4.463,29.082 0,16.507 4.607,31.912 13.822,46.215 9.213,14.298 22.792,25.865 40.743,34.697 17.947,8.827 39.88,13.245 65.795,13.245 25.338,0 46.309,-4.175 62.916,-12.525 16.602,-8.351 29.082,-19.725 37.432,-34.121 8.349,-14.398 12.525,-30.716 12.525,-48.95 0,-12.288 -2.736,-23.567 -8.207,-33.833 -5.471,-10.272 -12.43,-19.487 -20.875,-27.643 -8.449,-8.161 -17.039,-15.167 -25.771,-21.02 -8.737,-5.858 -16.461,-10.51 -23.178,-13.965 l 54.42,-57.588 c 4.797,3.643 11.707,10.266 20.732,19.868 9.02,9.596 18.522,21.401 28.506,35.416 l 57.012,-51.829 c -3.072,-4.608 -7.391,-10.366 -12.957,-17.277 -5.571,-6.911 -11.617,-13.871 -18.141,-20.876 -6.527,-7.009 -12.957,-13.006 -19.291,-17.996 l 80.336,-84.655 H 117.768 l -37.434,39.736 c -9.789,-7.874 -20.83,-15.36 -33.113,-22.46 -12.287,-7.103 -26.201,-12.912 -41.75,-17.42 -15.549,-4.508 -33.308,-6.766 -53.27,-6.766 -22.271,0 -43.048,4.13 -62.34,12.381 -19.292,8.252 -34.89,20.489 -46.79,36.713 -11.905,16.218 -17.853,36.325 -17.853,60.324" /></g><g
           transform="translate(1578.5646,515.6337)"
           id="g36"><path
             id="path38"
             style="fill:#ff5422;fill-opacity:1;fill-rule:nonzero;stroke:none"
             d="m 0,0 c 17.658,0 33.734,2.592 48.23,7.774 14.492,5.183 25.29,10.267 32.393,15.261 L 117.48,-50.102 C 108.455,-57.782 93.05,-65.557 71.266,-73.426 49.477,-81.294 23.611,-85.23 -6.335,-85.23 c -28.029,0 -54.326,4.894 -78.896,14.684 -24.574,9.79 -46.214,23.562 -64.931,41.319 -18.716,17.754 -33.401,38.585 -44.055,62.484 -10.654,23.899 -15.981,49.859 -15.981,77.889 0,28.024 5.277,54.083 15.837,78.176 10.554,24.088 25.195,45.063 43.911,62.915 18.717,17.853 40.406,31.719 65.075,41.608 24.664,9.884 51.011,14.829 79.04,14.829 29.946,0 55.812,-3.937 77.601,-11.806 21.784,-7.873 37.189,-15.647 46.214,-23.323 L 80.623,200.407 c -7.103,5.184 -17.901,10.317 -32.393,15.405 -14.496,5.084 -30.572,7.631 -48.23,7.631 -19.58,0 -36.668,-3.023 -51.254,-9.07 -14.591,-6.047 -26.778,-14.352 -36.568,-24.907 -9.79,-10.56 -17.088,-22.46 -21.884,-35.705 -4.801,-13.245 -7.198,-27.165 -7.198,-41.751 0,-14.784 2.397,-28.844 7.198,-42.184 4.796,-13.345 12.094,-25.294 21.884,-35.848 9.79,-10.56 21.977,-18.861 36.568,-24.908 C -36.668,3.023 -19.58,0 0,0" /></g><g
           transform="translate(1869.089,502.3885)"
           id="g40"><path
             id="path42"
             style="fill:#ff5422;fill-opacity:1;fill-rule:nonzero;stroke:none"
             d="m 0,0 c 9.979,0 18.617,2.204 25.915,6.622 7.293,4.414 12.957,10.654 16.988,18.717 4.032,8.062 6.047,17.178 6.047,27.354 0,10.366 -2.015,19.58 -6.047,27.643 -4.031,8.061 -9.695,14.396 -16.988,19.004 -7.298,4.606 -15.936,6.91 -25.915,6.91 -9.983,0 -18.671,-2.304 -26.059,-6.91 -7.392,-4.608 -13.151,-10.943 -17.276,-19.004 -4.131,-8.063 -6.191,-17.277 -6.191,-27.643 0,-10.176 2.06,-19.292 6.191,-27.354 4.125,-8.063 9.884,-14.303 17.276,-18.717 C -18.671,2.204 -9.983,0 0,0 m 0,-71.985 c -25.915,0 -48.905,5.326 -68.962,15.98 -20.061,10.653 -35.804,25.339 -47.223,44.055 -11.422,18.717 -17.132,40.168 -17.132,64.355 0,24.187 5.71,45.734 17.132,64.643 11.419,18.905 27.162,33.833 47.223,44.775 20.057,10.942 43.047,16.412 68.962,16.412 25.915,0 48.757,-5.47 68.53,-16.412 19.769,-10.942 35.224,-25.87 46.359,-44.775 C 126.02,98.139 131.59,76.592 131.59,52.405 131.59,28.218 126.02,6.767 114.889,-11.95 103.754,-30.666 88.299,-45.352 68.53,-56.005 48.757,-66.659 25.915,-71.985 0,-71.985" /></g><g
           transform="translate(2104.9111,430.4032)"
           id="g44"><path
             id="path46"
             style="fill:#ff5422;fill-opacity:1;fill-rule:nonzero;stroke:none"
             d="m 0,0 c -14.209,0 -26.446,5.138 -36.713,15.404 -10.271,10.267 -15.405,22.505 -15.405,36.713 0,14.586 5.134,27.017 15.405,37.288 10.267,10.268 22.504,15.406 36.713,15.406 14.586,0 26.967,-5.138 37.145,-15.406 10.171,-10.271 15.26,-22.702 15.26,-37.288 0,-14.208 -5.089,-26.446 -15.26,-36.713 C 26.967,5.138 14.586,0 0,0" /></g><g
           transform="translate(2137.8643,233.4666)"
           id="g48"><path
             id="path50"
             style="fill:#ff5422;fill-opacity:1;fill-rule:nonzero;stroke:none"
             d="m 0,0 14.092,44.247 c 0.703,1.973 1.549,4.086 1.549,5.776 h 0.421 c 0.142,-1.69 0.847,-3.803 1.411,-5.776 L 31.563,0 Z M 42.555,-34.383 H 58.901 L 26.067,62.848 H 5.636 l -32.974,-97.231 h 16.345 l 7.048,21.841 h 39.454 z m -113.331,0 h 15.22 v 97.23 h -15.22 z M -147.775,17.05 V 4.51 h 21.536 c -0.422,-15.923 -11.555,-26.492 -27.876,-26.492 -20.574,0 -29.569,16.911 -29.569,36.637 0,19.446 8.713,36.214 29.991,36.214 12.518,0 21.676,-5.776 27.032,-18.318 l 13.409,5.355 c -6.787,16.487 -20.597,26.49 -40.159,26.49 -30.415,0 -45.492,-22.686 -45.492,-49.741 0,-27.619 15.077,-50.446 42.673,-50.446 15.055,0 26.327,7.608 31.542,16.628 l 0.422,-15.22 h 12.423 V 17.05 Z m -127.823,-39.313 c -17.895,0 -29.308,14.233 -29.308,36.495 0,22.265 11.413,36.497 29.308,36.497 17.897,0 29.311,-14.232 29.311,-36.497 0,-22.262 -11.414,-36.495 -29.311,-36.495 m 0,-13.528 c 27.479,0 45.093,19.446 45.093,50.023 0,30.579 -17.614,50.024 -45.093,50.024 -27.477,0 -45.09,-19.445 -45.09,-50.024 0,-30.577 17.613,-50.023 45.09,-50.023 m -126.715,1.408 h 56.787 v 13.247 h -41.569 v 83.984 h -15.218 z m -80.921,12.12 c -17.897,0 -29.31,14.233 -29.31,36.495 0,22.265 11.413,36.497 29.31,36.497 17.896,0 29.309,-14.232 29.309,-36.497 0,-22.262 -11.413,-36.495 -29.309,-36.495 m 0,-13.528 c 27.477,0 45.091,19.446 45.091,50.023 0,30.579 -17.614,50.024 -45.091,50.024 -27.478,0 -45.093,-19.445 -45.093,-50.024 0,-30.577 17.615,-50.023 45.093,-50.023 m -160.678,1.408 h 15.22 v 78.067 h 0.563 c 0.845,-3.382 2.676,-6.623 4.086,-8.879 l 41.147,-69.188 h 18.74 v 97.231 h -15.36 v -77.22 h -0.563 c -0.845,2.535 -2.536,5.214 -3.804,7.469 l -41.57,69.751 h -18.459 z m -73.595,-1.408 c 18.602,0 33.537,10.145 39.456,27.337 l -13.667,5.778 c -4.227,-12.12 -13.951,-19.446 -25.928,-19.446 -17.474,0 -29.029,14.231 -29.029,36.918 0,22.265 11.133,35.933 28.888,35.933 12.964,0 22.405,-7.187 25.787,-19.164 l 13.81,5.637 c -5.919,17.191 -20.857,27.194 -39.456,27.194 -28.465,0 -44.107,-21.135 -44.107,-50.164 0,-29.028 15.642,-50.023 44.246,-50.023 m -136.157,1.408 h 64.114 v 13.247 h -48.895 V 7.609 h 43.965 v 13.247 h -43.965 v 28.745 h 48.895 v 13.247 h -64.114 z m -75.989,0 h 15.359 v 84.547 h 31.282 v 12.684 h -77.923 V 50.164 h 31.282 z m -194.637,0 h 15.077 v 80.744 h 0.705 c 0.141,-1.692 1.127,-4.791 1.832,-6.623 l 23.955,-74.121 h 16.063 l 23.956,73.276 c 0.845,2.677 1.832,5.776 1.972,7.468 h 0.564 v -80.744 h 15.359 v 97.089 h -23.672 l -26.21,-80.742 -26.21,80.742 h -23.391 z m -101.775,0 h 64.114 v 13.247 h -48.896 V 7.609 h 43.965 v 13.247 h -43.965 v 28.745 h 48.896 v 13.247 h -64.114 z m -101.213,-1.127 c 18.883,0 32.41,11.697 32.41,29.17 0,18.74 -15.501,24.8 -29.028,30.014 -10.992,4.227 -19.87,7.891 -19.87,16.346 0,7.044 5.919,11.554 14.374,11.554 7.61,0 15.077,-3.241 21.701,-11.413 l 9.018,9.299 c -8.737,10.71 -18.882,14.796 -30.155,14.796 -17.614,0 -30.156,-9.722 -30.156,-25.927 0,-17.473 14.514,-22.97 27.902,-27.76 11.695,-4.369 20.996,-8.173 20.996,-18.46 0,-8.737 -6.906,-14.091 -17.051,-14.091 -10.287,0 -19.729,5.918 -25.505,18.742 l -11.837,-7.751 c 7.609,-16.91 22.124,-24.519 37.201,-24.519 m -127.703,1.127 h 64.114 v 13.247 h -48.896 V 7.609 h 43.964 v 13.247 h -43.964 v 28.745 h 48.896 v 13.247 h -64.114 z m -80.921,12.12 c -17.896,0 -29.31,14.233 -29.31,36.495 0,22.265 11.414,36.497 29.31,36.497 17.896,0 29.309,-14.232 29.309,-36.497 0,-22.262 -11.413,-36.495 -29.309,-36.495 m 0,-13.528 c 27.477,0 45.091,19.446 45.091,50.023 0,30.579 -17.614,50.024 -45.091,50.024 -27.478,0 -45.093,-19.445 -45.093,-50.024 0,-30.577 17.615,-50.023 45.093,-50.023 m 10.71,105.966 c 8.735,0 14.232,5.776 14.232,17.755 h -9.019 c 0,-5.919 -1.691,-9.583 -6.201,-9.583 -7.186,0 -9.581,9.583 -21.137,9.583 -9.018,0 -13.667,-5.919 -13.667,-16.909 h 8.737 c 0,5.213 1.971,8.736 6.059,8.736 7.045,0 9.863,-9.582 20.996,-9.582 m -83.458,-78.629 -13.669,5.778 c -4.227,-12.12 -13.95,-19.446 -25.928,-19.446 -17.473,0 -29.027,14.231 -29.027,36.918 0,22.265 11.132,35.933 28.887,35.933 12.964,0 22.406,-7.187 25.787,-19.164 l 13.809,5.637 c -5.918,17.191 -20.855,27.194 -39.456,27.194 -28.464,0 -44.105,-21.135 -44.105,-50.164 0,-27.619 14.232,-48.051 40.301,-49.881 l -5.636,-10.429 9.3,-2.818 c 3.381,-1.127 5.637,-3.1 5.354,-6.201 -0.141,-3.382 -2.678,-5.777 -5.777,-5.777 -3.241,0 -5.355,2.395 -5.919,4.933 l -7.468,-3.665 c 1.973,-5.213 7.187,-9.158 13.95,-9.158 7.046,0 14.091,5.213 14.091,13.951 0,6.622 -4.931,9.862 -12.682,11.976 l 4.933,7.469 c 15.641,1.972 28.04,11.695 33.255,26.914 m -154.478,-27.337 c 23.252,0 36.073,13.809 36.073,37.342 v 61.297 h -15.218 V 0.282 c 0,-13.809 -7.89,-22.123 -20.855,-22.123 -13.105,0 -20.855,8.314 -20.855,22.123 v 62.566 h -15.218 V 0.846 c 0,-22.968 12.683,-36.637 36.073,-36.637 m -117.839,1.408 h 56.787 v 13.247 h -41.568 v 83.984 h -15.219 z m -80.921,12.12 c -17.896,0 -29.31,14.233 -29.31,36.495 0,22.265 11.414,36.497 29.31,36.497 17.896,0 29.309,-14.232 29.309,-36.497 0,-22.262 -11.413,-36.495 -29.309,-36.495 m 0,-13.528 c 27.477,0 45.092,19.446 45.092,50.023 0,30.579 -17.615,50.024 -45.092,50.024 -27.478,0 -45.091,-19.445 -45.091,-50.024 0,-30.577 17.613,-50.023 45.091,-50.023 m -108.257,0.281 c 18.882,0 32.41,11.697 32.41,29.17 0,18.74 -15.501,24.8 -29.029,30.014 -10.99,4.227 -19.869,7.891 -19.869,16.346 0,7.044 5.92,11.554 14.373,11.554 7.61,0 15.078,-3.241 21.7,-11.413 l 9.019,9.299 c -8.736,10.71 -18.882,14.796 -30.156,14.796 -17.614,0 -30.154,-9.722 -30.154,-25.927 0,-17.473 14.514,-22.97 27.9,-27.76 11.696,-4.369 20.996,-8.173 20.996,-18.46 0,-8.737 -6.905,-14.091 -17.05,-14.091 -10.286,0 -19.728,5.918 -25.504,18.742 l -11.837,-7.751 c 7.609,-16.91 22.123,-24.519 37.201,-24.519" /></g></g></g></g></svg>