<?xml version="1.0" encoding="UTF-8" standalone="no"?>
<svg
   xmlns:dc="http://purl.org/dc/elements/1.1/"
   xmlns:cc="http://creativecommons.org/ns#"
   xmlns:rdf="http://www.w3.org/1999/02/22-rdf-syntax-ns#"
   xmlns:svg="http://www.w3.org/2000/svg"
   xmlns="http://www.w3.org/2000/svg"
   xmlns:sodipodi="http://sodipodi.sourceforge.net/DTD/sodipodi-0.dtd"
   xmlns:inkscape="http://www.inkscape.org/namespaces/inkscape"
   version="1.1"
   width="430.86609"
   height="163.355"
   id="svg38"
   viewBox="0 0 430.86609 163.355"
   sodipodi:docname="iDempiere_Logo2.cdr">
  <metadata
     id="metadata44">
    <rdf:RDF>
      <cc:Work
         rdf:about="">
        <dc:format>image/svg+xml</dc:format>
        <dc:type
           rdf:resource="http://purl.org/dc/dcmitype/StillImage" />
      </cc:Work>
    </rdf:RDF>
  </metadata>
  <defs
     id="defs42" />
  <sodipodi:namedview
     pagecolor="#ffffff"
     bordercolor="#666666"
     borderopacity="1"
     objecttolerance="10"
     gridtolerance="10"
     guidetolerance="10"
     inkscape:pageopacity="0"
     inkscape:pageshadow="2"
     inkscape:window-width="640"
     inkscape:window-height="480"
     id="namedview40" />
  <g
     id="Layer1000">
    <g
       id="Layer1001">
      <defs
         id="defs7">
        <radialGradient
           id="grad1"
           cx="0.66500002"
           cy="0.66500002"
           r="0.63999999">
          <stop
             offset="0%"
             stop-color="#c8c8c8"
             stop-opacity="1.0000"
             id="stop2" />
          <stop
             offset="100%"
             stop-color="#6e6e6e"
             stop-opacity="1.0000"
             id="stop4" />
        </radialGradient>
      </defs>
      <path
         d="M 90.0066,62.5316 C 80.2121,37.4747 59.8884,18.1084 33.4677,2.9975 c 61.5739,25.1406 95.53,71.1601 73.028,120.6368 -8.603,18.916 -47.5465,26.1932 -56.1785,5.9201 22.4158,2.665 52.3718,-34.578 39.6894,-67.0228 z"
         style="fill:url(#grad1)"
         id="path9" />
      <defs
         id="defs16">
        <radialGradient
           id="grad2"
           cx="0.34"
           cy="0.34"
           r="0.69999999">
          <stop
             offset="0%"
             stop-color="#00a5d2"
             stop-opacity="1.0000"
             id="stop11" />
          <stop
             offset="100%"
             stop-color="#14325a"
             stop-opacity="1.0000"
             id="stop13" />
        </radialGradient>
      </defs>
      <path
         d="m 39.6119,85.1909 c 14.6182,-9.6923 26.4231,-9.7 40.1978,-4.6912 -10.225,-2.9647 -17.8441,1.1955 -24.698,10.5321 -15.2851,20.8213 -11.6031,49.191 9.3824,53.2137 12.075,1.9902 25.5477,-1.1365 36.2436,-9.2579 -15.8337,21.3152 -33.533,28.7692 -52.801,24.5737 -14.3616,-3.6993 -23.1534,-12.0768 -25.2501,-26.0781 -0.4811,-8.115 -2.7076,-12.4895 -6.623,-13.2459 -4.7746,-0.6641 -8.3639,2.2278 -11.1762,7.4509 6.8633,-17.0704 17.0595,-30.785 34.7245,-42.4973 z"
         style="fill:url(#grad2)"
         id="path18" />
      <defs
         id="defs25">
        <radialGradient
           id="grad3"
           cx="0.34999999"
           cy="0.34999999"
           r="0.81999999">
          <stop
             offset="0%"
             stop-color="#00a5d2"
             stop-opacity="1.0000"
             id="stop20" />
          <stop
             offset="100%"
             stop-color="#14325a"
             stop-opacity="1.0000"
             id="stop22" />
        </radialGradient>
      </defs>
      <path
         d="m 20.5469,42.6111 c 9.8301,0 17.7993,7.9692 17.7993,17.7993 0,9.8301 -7.9692,17.799 -17.7993,17.799 -9.8301,0 -17.7993,-7.9689 -17.7993,-17.799 0,-9.8301 7.9692,-17.7993 17.7993,-17.7993 z"
         style="fill:url(#grad3)"
         id="path27" />
    </g>
    <g
       id="Layer1002">
      <path
         d="m 151.0018,116.7111 h 16.9406 c 14.2536,0 18.2837,-9.0829 18.2837,-29.2406 0,-16.7316 -2.6866,-27.6472 -17.6122,-27.6472 h -17.6121 z m 10.7463,-48.4422 h 4.5523 c 8.209,0 9.1792,6.6129 9.1792,19.5203 0,15.457 -1.4925,20.4764 -8.9553,20.4764 h -4.7762 z m 60.4484,28.6828 v -2.4698 c 0,-13.1464 -2.6867,-21.7512 -14.7016,-21.7512 -13.8808,0 -15.9703,10.6764 -15.9703,22.1496 0,10.6764 0.5969,22.9462 15.5225,22.9462 9.7015,0 14.1792,-5.5772 14.5523,-15.5364 h -9.2537 c -0.597,5.2585 -2.0151,8.047 -5.4479,8.047 -3.8061,0 -5.0746,-4.9398 -5.0746,-9.9593 v -3.4261 z m -20.3733,-6.5333 v -1.6731 c 0,-3.9837 1.194,-8.5252 5.2986,-8.5252 4.2537,0 5,3.665 5.2239,10.1983 z m 25.7464,26.2927 h 10.2986 V 88.5062 c 0,-4.9398 2.0895,-7.33 5.3732,-7.33 2.9104,0 4.0299,1.9919 4.0299,5.5772 v 29.9577 h 10.2986 V 88.5062 c 0,-4.9398 2.0895,-7.33 5.373,-7.33 2.9106,0 4.0299,1.9919 4.0299,5.5772 v 29.9577 h 10.2986 V 85.5583 c 0,-8.2861 -3.2089,-12.8276 -10,-12.8276 -4.8508,0 -8.5822,2.3106 -10.1493,6.852 h -0.1493 c -1.1195,-4.3822 -4.5523,-6.852 -9.2539,-6.852 -4.3284,0 -7.5372,1.5935 -10.1493,5.4976 h -0.1491 v -4.3822 h -9.8509 z m 66.8662,-21.4325 c 0,-9.322 0.8955,-14.1024 5.4478,-14.1024 4.4777,0 5.3732,4.7804 5.3732,14.1024 0,9.322 -0.8955,14.1024 -5.3732,14.1024 -4.5523,0 -5.4478,-4.7804 -5.4478,-14.1024 z m -10.371,42.1952 h 10.2986 l 0.0724,-24.7464 h 0.1493 c 2.1642,3.426 4.7761,5.0991 8.6568,5.0991 8.4329,0 12.3133,-6.6129 12.3133,-22.5479 0,-15.9349 -3.8804,-22.5479 -12.3133,-22.5479 -4.03,0 -6.8658,1.6731 -9.1046,5.6568 h -0.1491 v -4.5414 h -9.851 z m 37.7591,-20.7627 h 10.2986 v -42.865 h -10.2986 z m 0,-48.1235 h 10.2986 v -9.4017 h -10.2986 z m 46.7169,28.3641 v -2.4698 c 0,-13.1464 -2.6866,-21.7512 -14.7016,-21.7512 -13.8807,0 -15.9704,10.6764 -15.9704,22.1496 0,10.6764 0.5971,22.9462 15.5226,22.9462 9.7016,0 14.1792,-5.5772 14.5523,-15.5364 H 358.69 c -0.5971,5.2585 -2.0149,8.047 -5.4477,8.047 -3.8061,0 -5.0749,-4.9398 -5.0749,-9.9593 v -3.4261 z m -20.3734,-6.5333 v -1.6731 c 0,-3.9837 1.1941,-8.5252 5.2987,-8.5252 4.2537,0 4.9999,3.665 5.2239,10.1983 z m 25.7465,26.2927 h 10.2986 V 90.9762 c 0,-5.7366 4.0299,-7.7285 7.612,-7.7285 1.0447,0 2.1642,0.0796 3.2091,0.1594 V 72.89 c -0.5971,-0.0797 -1.2689,-0.1593 -1.8658,-0.1593 -4.2536,0 -7.1642,2.7089 -9.2539,6.852 h -0.1491 v -5.7366 h -9.8509 z m 54.0303,-19.7594 v -2.4698 c 0,-13.1464 -2.6866,-21.7512 -14.7015,-21.7512 -13.8808,0 -15.9703,10.6764 -15.9703,22.1496 0,10.6764 0.5969,22.9462 15.5225,22.9462 9.7015,0 14.1793,-5.5772 14.5524,-15.5364 h -9.2539 c -0.5969,5.2585 -2.0149,8.047 -5.4478,8.047 -3.806,0 -5.0746,-4.9398 -5.0746,-9.9593 V 96.9517 Z M 407.571,90.4184 v -1.6731 c 0,-3.9837 1.194,-8.5252 5.2986,-8.5252 4.2538,0 5,3.665 5.2238,10.1983 z M 143.1467,116.7621 V 70.9335 l -10.3855,4.9552 v 40.8734 z m 0,-50.5198 v -6.9497 h -10.3855 v 11.9049 z"
         style="fill:#414141;fill-rule:evenodd"
         id="path30" />
      <path
         d="m 267.234,129.9568 v -0.4642 c 0,-1.1052 0.3286,-2.3651 1.4582,-2.3651 1.1706,0 1.3761,1.0168 1.4377,2.8293 z m 5.6069,1.8126 v -0.6852 c 0,-3.6471 -0.7393,-6.0345 -4.0461,-6.0345 -3.82,0 -4.3952,2.962 -4.3952,6.1451 0,2.962 0.1644,6.3662 4.2721,6.3662 2.6699,0 3.9023,-1.5475 4.005,-4.3105 h -2.5468 c -0.1644,1.4589 -0.5545,2.2326 -1.4993,2.2326 -1.0476,0 -1.3966,-1.3705 -1.3966,-2.7631 v -0.9506 z m -11.3825,-2.1219 c 0,-2.8074 -1.3554,-4.5978 -3.9639,-4.5978 -2.6083,0 -4.4776,1.3705 -4.4776,6.2555 0,4.7747 1.3968,6.2558 4.2312,6.2558 2.9986,0 4.2103,-1.7464 4.2103,-4.8631 h -2.711 c 0,1.9231 -0.4313,2.7852 -1.3761,2.7852 -1.2733,0 -1.5199,-1.2158 -1.5199,-4.1557 0,-2.7411 0.2259,-4.0673 1.6225,-4.0673 1.068,0 1.2735,1.2379 1.2735,2.3874 z m -16.743,7.6039 h 2.8344 v -7.1397 c 0,-1.5916 1.109,-2.1442 2.095,-2.1442 0.2875,0 0.5956,0.0221 0.8832,0.0442 v -2.9178 c -0.1644,-0.0221 -0.3494,-0.0442 -0.5136,-0.0442 -1.1707,0 -1.9717,0.7516 -2.5468,1.901 h -0.041 v -1.5915 h -2.7112 z m -6.4738,0 h 2.7112 v -11.8922 h -2.8344 v 7.8913 c 0,1.3263 -0.5339,1.9673 -1.4993,1.9673 -0.8421,0 -1.2117,-0.4642 -1.2117,-1.6579 v -8.2007 h -2.8344 v 8.8198 c 0,2.343 1.0475,3.382 2.8139,3.382 1.1911,0 2.218,-0.5306 2.8137,-1.7022 h 0.041 z m -14.9356,-5.9462 c 0,-2.4314 0.1232,-4.1777 1.5198,-4.1777 1.1503,0 1.5199,1.2157 1.5199,4.1777 0,2.9621 -0.3696,4.1779 -1.5199,4.1779 -1.3966,0 -1.5198,-1.7462 -1.5198,-4.1779 z m -2.8344,0 c 0,4.1337 0.945,6.322 4.3542,6.2558 3.2452,0 4.3543,-2.1885 4.3543,-6.2558 0,-4.1334 -0.9449,-6.3219 -4.3543,-6.2555 -3.2451,0 -4.3542,2.1883 -4.3542,6.2555 z m -12.6557,1.0169 v 0.641 c 0,2.9178 1.3145,4.5979 4.6622,4.5979 3.2039,0 5.0935,-1.5033 5.0935,-4.841 0,-1.9231 -0.5751,-3.1389 -2.7931,-4.1777 l -2.28,-1.0612 c -1.2527,-0.5746 -1.5197,-1.1714 -1.5197,-2.144 0,-0.9285 0.3491,-1.8347 1.6842,-1.8347 1.1294,0 1.602,0.862 1.602,2.3431 h 2.8344 v -0.4421 c 0,-3.0284 -1.9102,-4.2442 -4.5392,-4.2442 -2.7931,0 -4.539,1.5694 -4.539,4.6421 0,2.6304 1.2117,3.8019 3.8408,4.7746 1.9511,0.7293 2.6288,1.2599 2.6288,2.6968 0,1.3262 -0.8625,1.9451 -1.7664,1.9451 -1.5607,0 -1.951,-0.9505 -1.951,-2.4315 v -0.4642 z m -18.324,4.9293 h 2.8344 v -7.8913 c 0,-1.3263 0.5339,-1.9673 1.4993,-1.9673 0.8421,0 1.2117,0.4642 1.2117,1.6578 v 8.2008 h 2.8344 v -8.8197 c 0,-2.3432 -1.0475,-3.382 -2.8139,-3.382 -1.1911,0 -2.218,0.5305 -2.8137,1.7021 h -0.041 v -1.3926 h -2.7112 z m -8.9589,-7.2946 v -0.4642 c 0,-1.1052 0.3285,-2.3651 1.4582,-2.3651 1.1706,0 1.376,1.0168 1.4377,2.8293 z m 5.6069,1.8126 v -0.6852 c 0,-3.6471 -0.7394,-6.0345 -4.0462,-6.0345 -3.82,0 -4.3951,2.962 -4.3951,6.1451 0,2.962 0.1643,6.3662 4.2721,6.3662 2.6699,0 3.9023,-1.5475 4.005,-4.3105 h -2.5468 c -0.1644,1.4589 -0.5545,2.2326 -1.4993,2.2326 -1.0476,0 -1.3966,-1.3705 -1.3966,-2.7631 v -0.9506 z m -20.173,9.3725 h 2.8344 v -4.9957 h 0.0411 c 0.5957,0.9506 1.3143,1.4148 2.3824,1.4148 2.3208,0 3.3889,-1.8347 3.3889,-6.2558 0,-4.4208 -1.0681,-6.2555 -3.3889,-6.2555 -1.109,0 -1.8896,0.4642 -2.5057,1.5694 h -0.041 v -1.2599 h -2.7112 z m 2.8344,-9.8367 c 0,-2.5861 0.2464,-3.9124 1.4993,-3.9124 1.2324,0 1.4788,1.3263 1.4788,3.9124 0,2.5864 -0.2464,3.9126 -1.4788,3.9126 -1.2529,0 -1.4993,-1.3262 -1.4993,-3.9126 z m -13.3955,-1.9451 c 0,-4.222 0.2877,-5.8577 2.0335,-5.8577 1.7457,0 2.0333,1.6357 2.0333,5.8577 0,4.244 -0.2876,5.8577 -2.0333,5.8577 -1.7458,0 -2.0335,-1.6137 -2.0335,-5.8577 z m -2.9573,0 c 0,4.7967 0.5545,8.2009 4.9908,8.2009 4.4364,0 4.9909,-3.4042 4.9909,-8.2009 0,-4.7968 -0.5545,-8.2009 -4.9909,-8.2009 -4.4363,0 -4.9908,3.4041 -4.9908,8.2009 z"
         style="fill:#414141;fill-rule:evenodd"
         id="path32" />
      <path
         d="m 401.1212,136.967 h 2.8398 v -7.779 c 0,-1.3624 0.5763,-2.0216 1.4816,-2.0216 0.8028,0 1.1113,0.5494 1.1113,1.5383 v 8.2623 h 2.8398 v -7.779 c 0,-1.3624 0.5763,-2.0216 1.4818,-2.0216 0.8026,0 1.1111,0.5494 1.1111,1.5383 v 8.2623 h 2.8398 v -8.592 c 0,-2.2853 -0.8846,-3.5379 -2.7574,-3.5379 -1.3375,0 -2.3664,0.6373 -2.7986,1.8898 h -0.0412 c -0.3088,-1.2086 -1.2553,-1.8898 -2.5517,-1.8898 -1.1936,0 -2.0786,0.4395 -2.7987,1.5162 h -0.0411 v -1.2086 h -2.7165 z m -8.9764,-7.2515 v -0.4616 c 0,-1.0987 0.3292,-2.3512 1.4609,-2.3512 1.1731,0 1.3789,1.0109 1.4407,2.8128 z m 5.6178,1.8018 v -0.6812 c 0,-3.6258 -0.7408,-5.999 -4.0538,-5.999 -3.8277,0 -4.4038,2.9445 -4.4038,6.109 0,2.9445 0.1647,6.3284 4.2803,6.3284 2.6751,0 3.9098,-1.5381 4.0128,-4.2848 h -2.5517 c -0.1647,1.4503 -0.5557,2.2193 -1.5023,2.2193 -1.0496,0 -1.3993,-1.3623 -1.3993,-2.7468 v -0.9449 z m -15.397,-6.3726 h -1.4403 v 2.0656 h 1.4403 v 6.7681 c 0,2.3953 0.4116,3.1205 2.6342,3.1205 0.6584,0 1.2347,-0.066 1.8519,-0.1319 v -2.1095 c -0.1851,0.0219 -0.4114,0.0439 -0.6379,0.0439 -0.823,0 -1.0082,-0.3736 -1.0082,-1.2964 v -6.3947 h 1.6461 v -2.0656 h -1.6461 v -3.384 h -2.84 z m -12.1044,7.9548 v 0.4175 c 0,2.2633 0.8849,3.7575 4.0748,3.7575 2.3869,0 4.1156,-1.2304 4.1156,-3.7136 0,-1.7798 -0.6586,-2.7467 -2.4489,-3.384 l -1.708,-0.6153 c -0.9466,-0.3297 -1.2347,-0.813 -1.2347,-1.3844 0,-0.835 0.6173,-1.2745 1.3376,-1.2745 0.9261,0 1.2551,0.5933 1.2551,1.78 h 2.5519 v -0.4835 c 0,-2.1315 -1.2142,-3.3621 -3.7864,-3.3621 -2.9222,0 -4.0746,1.6042 -4.0746,3.5598 0,1.6701 0.8025,2.7029 2.3666,3.2962 l 1.9961,0.7691 c 0.5555,0.2198 1.0288,0.5714 1.0288,1.3405 0,0.9448 -0.5761,1.4063 -1.4404,1.4063 -0.9673,0 -1.4816,-0.6812 -1.4816,-1.714 v -0.3955 z m -10.5403,7.735 h 1.1524 c 2.634,0 3.2719,-0.5714 4.2596,-4.6586 l 2.6753,-11.0312 h -2.8398 l -1.4405,8.1745 h -0.0411 l -1.6464,-8.1745 h -2.9632 l 3.1074,11.8223 c -0.0825,1.0547 -0.4734,1.67 -1.5229,1.67 -0.2471,0 -0.4939,-0.0219 -0.7408,-0.0658 z m -13.0511,-8.7678 v 0.6372 c 0,2.9006 1.3169,4.5706 4.6714,4.5706 3.2101,0 5.1033,-1.4942 5.1033,-4.8123 0,-1.9117 -0.5761,-3.1203 -2.7985,-4.1531 l -2.2843,-1.0547 c -1.2553,-0.5714 -1.5227,-1.1647 -1.5227,-2.1317 0,-0.9228 0.3498,-1.8239 1.6874,-1.8239 1.1317,0 1.6051,0.8572 1.6051,2.3294 h 2.8398 v -0.4394 c 0,-3.0106 -1.9138,-4.2192 -4.5478,-4.2192 -2.7987,0 -4.5481,1.5603 -4.5481,4.6147 0,2.6149 1.2144,3.7796 3.8482,4.7465 1.9552,0.725 2.6342,1.2525 2.6342,2.6808 0,1.3184 -0.8642,1.9337 -1.7697,1.9337 -1.564,0 -1.9549,-0.9448 -1.9549,-2.4172 v -0.4614 z m -15.3569,-8.4601 h 1.2347 c 1.4817,0 2.0579,0.8789 2.0579,2.4172 0,1.6041 -0.8024,2.3512 -1.9755,2.3512 h -1.3171 z m -2.9633,13.3604 h 2.9633 v -6.2626 h 1.5845 c 2.7989,0 4.6714,-1.4725 4.6714,-4.7247 0,-2.3512 -1.0288,-4.7024 -4.0335,-4.7024 h -5.1857 z m -13.3184,0 h 2.9634 v -6.6362 h 1.5845 c 1.1935,0 1.708,0.747 1.7492,1.9776 l 0.0824,3.0105 c 0.0205,0.6153 0.0822,1.2086 0.3701,1.6481 h 3.2103 v -0.1319 c -0.5556,-0.3076 -0.6379,-1.1645 -0.6583,-2.8126 -0.0412,-3.3181 -0.3499,-4.5048 -2.3666,-4.7906 v -0.0439 c 1.6669,-0.3736 2.4488,-1.7799 2.4488,-3.8675 0,-2.6809 -1.4818,-4.0432 -3.9098,-4.0432 h -5.474 z m 2.9634,-13.3604 h 1.3993 c 1.3376,0 2.0579,0.725 2.0579,2.1755 0,1.692 -0.8026,2.3512 -2.2225,2.3512 h -1.2347 z m -14.7385,-2.3293 v 15.6897 h 8.4167 v -2.5931 h -5.4533 v -4.2189 h 4.9388 v -2.5931 h -4.9388 v -3.6917 h 5.2475 v -2.5929 z"
         style="fill:#414141;fill-rule:evenodd"
         id="path34" />
    </g>
  </g>
</svg>
